HIERARCHY
ROOT Hips
{
	OFFSET 0.00000 0.00000 0.00000
	CHANNELS 6 Xposition Yposition Zposition Zrotation Yrotation Xrotation 
	JOINT LHipJoint
	{
		OFFSET 0 0 0
		CHANNELS 3 Zrotation Yrotation Xrotation
		JOINT LeftUpLeg
		{
			OFFSET 1.38280 -1.96574 0.54427
			CHANNELS 3 Zrotation Yrotation Xrotation
			JOINT LeftLeg
			{
				OFFSET 2.72096 -7.47578 0.00000
				CHANNELS 3 Zrotation Yrotation Xrotation
				JOINT LeftFoot
				{
					OFFSET 2.73041 -7.50176 0.00000
					CHANNELS 3 Zrotation Yrotation Xrotation
					JOINT LeftToeBase
					{
						OFFSET 0.16150 -0.44371 2.18031
						CHANNELS 3 Zrotation Yrotation Xrotation
						End Site
						{
							OFFSET 0.00000 -0.00000 1.12127
						}
					}
				}
			}
		}
	}
	JOINT RHipJoint
	{
		OFFSET 0 0 0
		CHANNELS 3 Zrotation Yrotation Xrotation
		JOINT RightUpLeg
		{
			OFFSET -1.57224 -1.96575 0.54427
			CHANNELS 3 Zrotation Yrotation Xrotation
			JOINT RightLeg
			{
				OFFSET -2.95935 -8.13076 0.00000
				CHANNELS 3 Zrotation Yrotation Xrotation
				JOINT RightFoot
				{
					OFFSET -2.52345 -6.93311 0.00000
					CHANNELS 3 Zrotation Yrotation Xrotation
					JOINT RightToeBase
					{
						OFFSET -0.04475 -0.10171 1.86688
						CHANNELS 3 Zrotation Yrotation Xrotation
						End Site
						{
							OFFSET -0.00000 -0.00000 0.95157
						}
					}
				}
			}
		}
	}
	JOINT LowerBack
	{
		OFFSET 0 0 0
		CHANNELS 3 Zrotation Yrotation Xrotation
		JOINT Spine
		{
			OFFSET 0.00669 2.07367 0.09104
			CHANNELS 3 Zrotation Yrotation Xrotation
			JOINT Spine1
			{
				OFFSET -0.00664 2.06198 -0.04732
				CHANNELS 3 Zrotation Yrotation Xrotation
				JOINT Neck
				{
					OFFSET 0 0 0
					CHANNELS 3 Zrotation Yrotation Xrotation
					JOINT Neck1
					{
						OFFSET -0.00021 1.49948 0.16345
						CHANNELS 3 Zrotation Yrotation Xrotation
						JOINT Head
						{
							OFFSET 0.06080 1.50567 -0.26702
							CHANNELS 3 Zrotation Yrotation Xrotation
							End Site
							{
								OFFSET 0.01726 1.56470 -0.11854
							}
						}
					}
				}
				JOINT LeftShoulder
				{
					OFFSET 0 0 0
					CHANNELS 3 Zrotation Yrotation Xrotation
					JOINT LeftArm
					{
						OFFSET 3.14993 0.82932 -0.22488
						CHANNELS 3 Zrotation Yrotation Xrotation
						JOINT LeftForeArm
						{
							OFFSET 5.68236 -0.00000 -0.00000
							CHANNELS 3 Zrotation Yrotation Xrotation
							JOINT LeftHand
							{
								OFFSET 3.17112 -0.00000 0.00000
								CHANNELS 3 Zrotation Yrotation Xrotation
								JOINT LeftFingerBase
								{
									OFFSET 0 0 0
									CHANNELS 3 Zrotation Yrotation Xrotation
									JOINT LeftHandIndex1
									{
										OFFSET 0.63269 -0.00000 0.00000
										CHANNELS 3 Zrotation Yrotation Xrotation
										End Site
										{
											OFFSET 0.51009 -0.00000 0.00000
										}
									}
								}
								JOINT LThumb
								{
									OFFSET 0 0 0
									CHANNELS 3 Zrotation Yrotation Xrotation
									End Site
									{
										OFFSET 0.51788 -0.00000 0.51788
									}
								}
							}
						}
					}
				}
				JOINT RightShoulder
				{
					OFFSET 0 0 0
					CHANNELS 3 Zrotation Yrotation Xrotation
					JOINT RightArm
					{
						OFFSET -3.10571 0.91279 -0.33334
						CHANNELS 3 Zrotation Yrotation Xrotation
						JOINT RightForeArm
						{
							OFFSET -5.87120 -0.00000 -0.00000
							CHANNELS 3 Zrotation Yrotation Xrotation
							JOINT RightHand
							{
								OFFSET -3.37589 -0.00000 0.00000
								CHANNELS 3 Zrotation Yrotation Xrotation
								JOINT RightFingerBase
								{
									OFFSET 0 0 0
									CHANNELS 3 Zrotation Yrotation Xrotation
									JOINT RightHandIndex1
									{
										OFFSET -0.60326 -0.00000 0.00000
										CHANNELS 3 Zrotation Yrotation Xrotation
										End Site
										{
											OFFSET -0.48636 -0.00000 0.00000
										}
									}
								}
								JOINT RThumb
								{
									OFFSET 0 0 0
									CHANNELS 3 Zrotation Yrotation Xrotation
									End Site
									{
										OFFSET -0.49379 -0.00000 0.49379
									}
								}
							}
						}
					}
				}
			}
		}
	}
}
MOTION
Frames: 14
Frame Time: .0083333
-9.1850 17.9762 7.3405 1699.9400 86.2006 1712.5600 0.0000 0.0000 0.0000 -1.6953 -24.3313 -32.2120 4.2719 12.5137 37.5744 0.5053 -5.8487 -12.7039 0.5563 -4.7778 -13.2759 0.0000 0.0000 0.0000 13.9330 8.2050 -17.9675 -4.2232 -12.4516 37.3490 -0.9818 10.5255 -18.0814 -1.6593 -8.1172 23.0707 0.7600 5.8964 -6.6767 0.7159 7.7933 3.4481 1.3358 3.8463 7.3463 -3.7835 -8.2480 -16.4593 5.0385 -11.5286 23.0620 0.7948 -4.8964 10.6550 0.0000 0.0000 0.0000 -73.7022 2.0945 54.8673 66.4207 -57.7913 -39.7312 -0.0000 0.0000 -24.4645 9.7927 36.1558 5.8144 -7.1250 0.0000 -0.0000 -30.0184 64.0847 -14.5121 0.0000 0.0000 0.0000 90.2210 38.3787 77.6641 -64.7412 57.4464 -38.3128 0.0000 0.0000 7.3794 -17.1962 22.3793 -6.7202 7.1250 -0.0000 -0.0000 7.3367 -6.8219 6.4679
-9.2076 17.9713 7.3856 1709.5400 86.3198 1722.0800 0.0000 0.0000 0.0000 -1.7024 -23.9829 -32.0705 4.2609 12.4997 37.5235 0.5287 -5.5276 -12.9652 0.6424 -5.1275 -14.2724 0.0000 0.0000 0.0000 13.9385 8.3308 -18.0150 -4.1990 -12.4206 37.2367 -0.9760 10.9690 -18.1184 -1.5736 -7.9150 22.4561 0.6888 5.8131 -6.7098 0.6815 7.6901 3.4578 1.3298 3.7924 7.3715 -3.7136 -8.0381 -16.6441 4.8789 -11.2154 23.0839 0.7678 -4.7649 10.6670 -0.0000 0.0000 0.0000 -73.7799 2.0826 54.9034 66.0891 -57.7255 -39.4506 -0.0000 0.0000 -24.5277 9.8943 36.1581 5.8758 -7.1250 0.0000 -0.0000 -29.9141 64.1140 -14.4775 -0.0000 0.0000 0.0000 89.9503 37.4596 76.7118 -63.8381 57.2488 -37.5524 0.0000 0.0000 7.4108 -17.6087 22.3549 -6.8832 7.1250 -0.0000 -0.0000 7.0762 -6.7893 6.2390
-9.2309 17.9659 7.4318 1719.5200 86.3340 1731.9900 0.0000 0.0000 0.0000 -1.7100 -23.6150 -31.9274 4.2480 12.4833 37.4638 0.5488 -5.2467 -13.1938 0.7129 -5.3959 -15.0412 0.0000 0.0000 0.0000 13.9431 8.4274 -18.0777 -4.1783 -12.3939 37.1401 -0.9578 11.3088 -18.0394 -1.5563 -7.8734 22.3302 0.6195 5.7425 -6.7335 0.6430 7.6042 3.4620 1.3192 3.7474 7.3861 -3.6283 -7.8313 -16.8162 4.7292 -10.9130 23.1082 0.7408 -4.6359 10.6786 -0.0000 -0.0000 0.0000 -73.8315 2.0698 54.9850 65.7811 -57.6633 -39.1904 -0.0000 0.0000 -24.6614 9.9860 36.1585 5.9311 -7.1250 0.0000 -0.0000 -29.8179 64.1391 -14.4442 -0.0000 -0.0000 0.0000 89.6663 36.5116 75.7018 -62.9763 57.0522 -36.8284 0.0000 0.0000 7.4631 -18.0460 22.3310 -7.0569 7.1250 -0.0000 -0.0000 6.7998 -6.7518 5.9966
-9.2547 17.9603 7.4783 1729.2300 86.2491 1741.6100 0.0000 0.0000 0.0000 -1.7226 -23.2768 -31.7511 4.2344 12.4659 37.4008 0.5683 -5.0105 -13.4196 0.7504 -5.5329 -15.4351 0.0000 0.0000 0.0000 13.9422 8.4824 -18.1333 -4.1595 -12.3697 37.0528 -0.9273 11.5769 -17.8480 -1.5856 -7.9436 22.5430 0.5496 5.6710 -6.7395 0.6113 7.5170 3.4734 1.3143 3.7018 7.3976 -3.5717 -7.6179 -16.9899 4.6158 -10.6031 23.1473 0.7320 -4.5008 10.7006 0.0000 0.0000 0.0000 -73.8891 2.0885 55.0609 65.5272 -57.6114 -38.9759 -0.0000 0.0000 -24.7991 10.0821 36.1374 5.9859 -7.1250 0.0000 -0.0000 -29.6920 64.1473 -14.3835 0.0000 0.0000 0.0000 89.3519 35.5581 74.6672 -62.1626 56.8592 -36.1463 0.0000 0.0000 7.5386 -18.4683 22.3175 -7.2280 7.1250 -0.0000 -0.0000 6.5334 -6.7048 5.7645
-9.2787 17.9547 7.5247 1738.2400 86.0816 1750.5000 0.0000 0.0000 0.0000 -1.7448 -23.0058 -31.5316 4.2210 12.4489 37.3390 0.5907 -4.7812 -13.6836 0.7668 -5.5917 -15.6041 0.0000 0.0000 0.0000 13.9281 8.4861 -18.1768 -4.1410 -12.3457 36.9660 -0.8859 11.8190 -17.5623 -1.6245 -8.0358 22.8230 0.4708 5.5845 -6.7352 0.5937 7.4102 3.5071 1.3266 3.6459 7.4239 -3.5657 -7.3919 -17.1974 4.5431 -10.2722 23.2083 0.7476 -4.3544 10.7423 0.0000 0.0000 0.0000 -73.9825 2.1460 55.0731 65.3394 -57.5725 -38.8173 -0.0000 0.0000 -24.8725 10.1117 36.1061 5.9992 -7.1250 0.0000 -0.0000 -29.6237 64.1287 -14.3348 0.0000 0.0000 0.0000 89.0034 34.6415 73.6454 -61.3783 56.6662 -35.4903 0.0000 0.0000 7.6395 -18.8391 22.3213 -7.3835 7.1250 -0.0000 -0.0000 6.3007 -6.6468 5.5637
-9.3029 17.9495 7.5714 1746.3100 85.8383 1758.4500 0.0000 0.0000 0.0000 -1.7623 -22.7968 -31.2940 4.2081 12.4323 37.2789 0.6173 -4.5325 -13.9968 0.7777 -5.6304 -15.7156 0.0000 0.0000 0.0000 13.9079 8.4487 -18.2292 -4.1215 -12.3204 36.8749 -0.8360 12.0504 -17.2044 -1.6509 -8.0976 23.0109 0.3884 5.4816 -6.7357 0.5842 7.2820 3.5654 1.3488 3.5786 7.4784 -3.5855 -7.1582 -17.4663 4.4845 -9.9268 23.2826 0.7725 -4.2009 10.8028 -0.0000 0.0000 0.0000 -74.1053 2.2055 55.0062 65.1895 -57.5413 -38.6908 -0.0000 0.0000 -24.8708 10.0289 36.0793 5.9457 -7.1250 0.0000 -0.0000 -29.6797 64.0837 -14.3333 -0.0000 0.0000 0.0000 88.6471 33.7946 72.6408 -60.6031 56.4685 -34.8434 0.0000 0.0000 7.7763 -19.1489 22.3553 -7.5236 7.1250 -0.0000 -0.0000 6.1086 -6.5658 5.4016
-9.3277 17.9448 7.6194 1753.2900 85.5182 1765.3300 0.0000 0.0000 0.0000 -1.7518 -22.6111 -31.0782 4.1948 12.4152 37.2169 0.6461 -4.2614 -14.3381 0.7919 -5.6806 -15.8604 0.0000 0.0000 0.0000 13.8974 8.4021 -18.3187 -4.1016 -12.2944 36.7816 -0.7823 12.2655 -16.8082 -1.6627 -8.1250 23.0943 0.3192 5.3740 -6.7561 0.5701 7.1470 3.6472 1.3621 3.5082 7.5723 -3.5683 -6.9219 -17.8347 4.3965 -9.5798 23.3462 0.7787 -4.0466 10.8748 0.0000 0.0000 0.0000 -74.2258 2.1852 54.9051 65.0060 -57.5027 -38.5360 -0.0000 0.0000 -24.8527 9.9103 36.0736 5.8737 -7.1250 0.0000 -0.0000 -29.7981 64.0469 -14.3700 0.0000 0.0000 0.0000 88.3007 33.0429 71.6297 -59.8377 56.2665 -34.2061 0.0000 0.0000 7.9345 -19.4031 22.4499 -7.6605 7.1250 -0.0000 -0.0000 5.9565 -6.4300 5.2813
-9.3532 17.9404 7.6690 1759.1100 85.1229 1771.1000 0.0000 0.0000 0.0000 -1.6970 -22.4186 -30.9033 4.1800 12.3962 37.1484 0.6751 -3.9835 -14.6839 0.8039 -5.7225 -15.9813 0.0000 0.0000 0.0000 13.9065 8.3705 -18.4586 -4.0825 -12.2694 36.6917 -0.7279 12.4628 -16.3992 -1.6672 -8.1354 23.1260 0.2823 5.2752 -6.8010 0.5401 7.0220 3.7503 1.3467 3.4441 7.7095 -3.4629 -6.6839 -18.3179 4.2559 -9.2412 23.3812 0.7479 -3.8949 10.9514 0.0000 -0.0000 0.0000 -74.3117 2.0162 54.8280 64.7155 -57.4409 -38.2911 -0.0000 0.0000 -24.8797 9.8949 36.0965 5.8676 -7.1250 0.0000 -0.0000 -29.8412 64.0621 -14.4032 0.0000 -0.0000 0.0000 87.9791 32.4094 70.5963 -59.0886 56.0621 -33.5838 0.0000 0.0000 8.0790 -19.6259 22.5964 -7.8019 7.1250 -0.0000 -0.0000 5.8285 -6.2448 5.1874
-9.3796 17.9359 7.7195 1763.8700 84.6575 1775.8300 0.0000 0.0000 0.0000 -1.6017 -22.1993 -30.7552 4.1634 12.3747 37.0708 0.7036 -3.7163 -15.0241 0.8080 -5.7367 -16.0223 0.0000 0.0000 0.0000 13.9381 8.3515 -18.6391 -4.0651 -12.2465 36.6095 -0.6723 12.6479 -15.9728 -1.6688 -8.1392 23.1378 0.2900 5.1935 -6.8571 0.4917 6.9169 3.8596 1.2918 3.3922 7.8677 -3.2731 -6.4449 -18.8630 4.0774 -8.9163 23.3938 0.6870 -3.7472 11.0267 -0.0000 0.0000 0.0000 -74.3472 1.7177 54.7996 64.3169 -57.3547 -37.9554 -0.0000 0.0000 -24.9706 10.0381 36.1423 5.9601 -7.1250 0.0000 -0.0000 -29.7438 64.1395 -14.4054 -0.0000 0.0000 0.0000 87.6877 31.8729 69.5464 -58.3435 55.8521 -32.9664 0.0000 0.0000 8.1837 -19.8580 22.7330 -7.9453 7.1250 -0.0000 -0.0000 5.6944 -6.0677 5.0864
-9.4061 17.9311 7.7704 1767.7900 84.1321 1779.7300 0.0000 0.0000 0.0000 -1.4951 -21.9401 -30.6066 4.1454 12.3514 36.9867 0.7317 -3.4307 -15.3631 0.8269 -5.8017 -16.2100 0.0000 0.0000 0.0000 13.9843 8.3307 -18.8366 -4.0492 -12.2256 36.5348 -0.6131 12.8292 -15.5084 -1.6654 -8.1314 23.1138 0.3299 5.1282 -6.9135 0.4369 6.8308 3.9527 1.2137 3.3518 8.0132 -3.0495 -6.2004 -19.3646 3.8897 -8.5925 23.3924 0.6195 -3.5997 11.0877 -0.0000 0.0000 0.0000 -74.3544 1.3856 54.8013 63.8796 -57.2581 -37.5873 -0.0000 0.0000 -25.1175 10.2892 36.1999 6.1196 -7.1250 0.0000 -0.0000 -29.5466 64.2564 -14.3816 -0.0000 0.0000 0.0000 87.4068 31.3474 68.4951 -57.6048 55.6371 -32.3558 0.0000 0.0000 8.2456 -20.1178 22.8211 -8.0860 7.1250 -0.0000 -0.0000 5.5394 -5.9360 4.9607
-9.4322 17.9261 7.8212 1771.1200 83.5634 1783.0300 0.0000 0.0000 0.0000 -1.4050 -21.6648 -30.4338 4.1273 12.3280 36.9023 0.7604 -3.0769 -15.7201 0.8822 -5.9876 -16.7486 0.0000 0.0000 0.0000 14.0289 8.3018 -19.0281 -4.0340 -12.2055 36.4629 -0.5488 13.0196 -14.9959 -1.6521 -8.1003 23.0192 0.3753 5.0676 -6.9747 0.3939 6.7489 4.0179 1.1438 3.3137 8.1305 -2.8502 -5.9451 -19.7082 3.7080 -8.2481 23.3682 0.5666 -3.4473 11.1121 0.0000 -0.0000 0.0000 -74.3821 1.1076 54.7895 63.4597 -57.1635 -37.2343 -0.0000 0.0000 -25.2872 10.5383 36.2583 6.2786 -7.1250 0.0000 -0.0000 -29.3518 64.3738 -14.3584 0.0000 -0.0000 0.0000 87.1121 30.7368 67.4605 -56.9032 55.4266 -31.7775 0.0000 0.0000 8.2925 -20.4006 22.8610 -8.2215 7.1250 -0.0000 -0.0000 5.3662 -5.8499 4.8130
-9.4585 17.9208 7.8720 1773.9200 82.9696 1785.7900 0.0000 0.0000 0.0000 -1.3180 -21.4189 -30.2321 4.1104 12.3059 36.8230 0.7903 -2.6815 -16.1026 0.9503 -6.2080 -17.3891 0.0000 0.0000 0.0000 14.0742 8.2829 -19.2016 -4.0190 -12.1856 36.3918 -0.4811 13.2314 -14.4537 -1.6288 -8.0458 22.8533 0.4226 5.0020 -7.0402 0.3716 6.6581 4.0595 1.0916 3.2711 8.2223 -2.6948 -5.6799 -19.8625 3.5282 -7.8761 23.3108 0.5317 -3.2895 11.0904 -0.0000 0.0000 0.0000 -74.4512 0.8970 54.7405 63.0737 -57.0749 -36.9102 -0.0000 0.0000 -25.4466 10.6891 36.3132 6.3781 -7.1250 0.0000 -0.0000 -29.2567 64.4616 -14.3674 -0.0000 0.0000 0.0000 86.7890 30.0028 66.4292 -56.2766 55.2333 -31.2621 0.0000 0.0000 8.3756 -20.6935 22.8887 -8.3580 7.1250 -0.0000 -0.0000 5.1858 -5.7741 4.6573
-9.4867 17.9153 7.9234 1776.0800 82.3731 1787.9200 0.0000 0.0000 0.0000 -1.1867 -21.2230 -30.0310 4.0953 12.2862 36.7520 0.8211 -2.3339 -16.4907 0.9847 -6.3163 -17.7050 0.0000 0.0000 0.0000 14.1437 8.3129 -19.3637 -4.0048 -12.1667 36.3244 -0.4146 13.4638 -13.9248 -1.6021 -7.9828 22.6619 0.4959 4.9363 -7.0865 0.3617 6.5630 4.0866 1.0344 3.2280 8.2886 -2.5483 -5.4119 -19.9202 3.3381 -7.4943 23.2271 0.4987 -3.1313 11.0415 0.0000 -0.0000 0.0000 -74.5296 0.6990 54.6855 62.7063 -56.9890 -36.6019 -0.0000 0.0000 -25.6023 10.7909 36.3693 6.4483 -7.1250 0.0000 -0.0000 -29.2155 64.5372 -14.3965 0.0000 -0.0000 0.0000 86.4397 29.1631 65.3377 -55.7747 55.0747 -30.8502 0.0000 0.0000 8.5403 -20.9735 22.9635 -8.5058 7.1250 -0.0000 -0.0000 5.0180 -5.6510 4.5172
-9.5191 17.9095 7.9758 1777.6400 81.7998 1789.4600 0.0000 0.0000 0.0000 -0.9805 -21.0676 -29.8796 4.0821 12.2689 36.6898 0.8513 -2.0803 -16.8553 0.9699 -6.2700 -17.5698 0.0000 0.0000 0.0000 14.2489 8.4194 -19.5360 -3.9924 -12.1502 36.2656 -0.3535 13.6976 -13.4427 -1.5770 -7.9231 22.4806 0.6144 4.8830 -7.0824 0.3405 6.4810 4.1066 0.9371 3.1949 8.3243 -2.3573 -5.1538 -20.0243 3.1375 -7.1386 23.1473 0.4491 -2.9814 11.0029 -0.0000 0.0000 0.0000 -74.5543 0.4390 54.6916 62.3121 -56.8952 -36.2715 -0.0000 0.0000 -25.7459 11.0232 36.4273 6.5983 -7.1250 0.0000 -0.0000 -29.0372 64.6503 -14.3772 -0.0000 0.0000 0.0000 86.0798 28.2890 64.1306 -55.4150 54.9589 -30.5555 0.0000 0.0000 8.7997 -21.2503 23.0783 -8.6673 7.1250 -0.0000 -0.0000 4.8561 -5.4860 4.3858
